<svg xmlns="http://www.w3.org/2000/svg" width="40" height="40" viewBox="0 0 40 40" fill="none">
<path d="M40 20C40 8.9543 31.0457 0 20 0C8.9543 0 0 8.9543 0 20C0 31.0457 8.9543 40 20 40C31.0457 40 40 31.0457 40 20Z" fill="#ffeae1"/>
<g clip-path="url(#clip0_8_18)">
<path d="M24.6525 20.256L25.2072 16.6389H21.7357V14.2831C21.7115 14.013 21.7484 13.7409 21.8436 13.4869C21.9388 13.233 22.0898 13.0037 22.2856 12.8159C22.4813 12.6282 22.7167 12.4869 22.9745 12.4024C23.2322 12.3179 23.5056 12.2925 23.7745 12.3279H25.3528V9.25688C24.4263 9.1073 23.49 9.0257 22.5516 9.01275C21.9059 8.96358 21.2573 9.05703 20.6517 9.28647C20.0462 9.51591 19.4985 9.87573 19.0475 10.3404C18.5965 10.8051 18.2532 11.3633 18.042 11.9755C17.8307 12.5876 17.7567 13.2387 17.8252 13.8827V16.6389H14.6471V20.256H17.8252V29H21.7357V20.256H24.6525Z" fill="#3f51b5"/>
</g>
<defs fill="#000000">
<clipPath id="clip0_8_18" fill="#000000">
<rect width="12" height="20" fill="white" transform="translate(14 9)"/>
</clipPath>
</defs>
</svg>