<svg xmlns="http://www.w3.org/2000/svg" width="40" height="40" viewBox="0 0 40 40" fill="none">
<path d="M40 20C40 8.9543 31.0457 0 20 0C8.9543 0 0 8.9543 0 20C0 31.0457 8.9543 40 20 40C31.0457 40 40 31.0457 40 20Z" fill="#ffe9e1"/>
<g clip-path="url(#clip0_9_41)">
<path d="M20.0125 13.8766C18.9981 13.8751 18.0061 14.1745 17.1619 14.737C16.3178 15.2995 15.6594 16.0997 15.2702 17.0365C14.881 17.9732 14.7784 19.0043 14.9754 19.9994C15.1724 20.9945 15.6601 21.9088 16.3769 22.6266C17.0936 23.3444 18.0072 23.8334 19.002 24.0319C19.9967 24.2303 21.028 24.1292 21.9653 23.7414C22.9026 23.3535 23.7038 22.6964 24.2675 21.853C24.8313 21.0097 25.1321 20.0181 25.1321 19.0037C25.1331 18.3308 25.0014 17.6642 24.7446 17.0422C24.4877 16.4202 24.1108 15.8549 23.6353 15.3787C23.1598 14.9025 22.5951 14.5248 21.9734 14.267C21.3518 14.0092 20.6854 13.8766 20.0125 13.8766ZM20.0125 22.336C19.3531 22.3375 18.7081 22.1434 18.1591 21.7781C17.6101 21.4128 17.1819 20.8929 16.9285 20.2842C16.6751 19.6754 16.6081 19.0052 16.7358 18.3583C16.8635 17.7114 17.1803 17.1169 17.646 16.6501C18.1118 16.1833 18.7055 15.8652 19.3521 15.7361C19.9987 15.6069 20.6691 15.6724 21.2784 15.9244C21.8878 16.1764 22.4087 16.6035 22.7751 17.1517C23.1416 17.6998 23.3373 18.3444 23.3373 19.0037C23.3353 19.8856 22.9846 20.7309 22.3617 21.3552C21.7388 21.9795 20.8943 22.3321 20.0125 22.336ZM26.5371 13.6591C26.5371 13.8954 26.467 14.1264 26.3357 14.3229C26.2044 14.5194 26.0178 14.6726 25.7994 14.7631C25.5811 14.8535 25.3408 14.8772 25.109 14.831C24.8772 14.7849 24.6643 14.6711 24.4972 14.504C24.3301 14.3369 24.2163 14.124 24.1702 13.8922C24.1241 13.6604 24.1477 13.4201 24.2382 13.2018C24.3286 12.9835 24.4818 12.7968 24.6783 12.6655C24.8748 12.5342 25.1058 12.4642 25.3421 12.4642C25.4991 12.4638 25.6547 12.4945 25.7998 12.5545C25.9449 12.6144 26.0768 12.7024 26.1878 12.8134C26.2988 12.9244 26.3868 13.0563 26.4468 13.2014C26.5067 13.3465 26.5374 13.5021 26.5371 13.6591ZM29.9319 14.874C29.9647 13.3195 29.3846 11.8146 28.317 10.6843C27.1845 9.62009 25.681 9.04058 24.1272 9.06937C22.4773 8.97688 17.5276 8.97688 15.8777 9.06937C14.323 9.03912 12.8182 9.61879 11.6855 10.6843C10.6195 11.8156 10.0397 13.3199 10.0706 14.874C9.9781 16.5239 9.9781 21.4736 10.0706 23.1235C10.0371 24.6788 10.6172 26.1848 11.6855 27.3157C12.8184 28.3792 14.3216 28.9586 15.8752 28.9306C17.5251 29.0231 22.4748 29.0231 24.1247 28.9306C25.6792 28.9634 27.1841 28.3834 28.3145 27.3157C29.3786 26.1832 29.9581 24.6797 29.9293 23.126C30.0218 21.4761 30.0218 16.5314 29.9293 14.8765L29.9319 14.874ZM27.7995 24.9084C27.6298 25.3383 27.3736 25.7287 27.0468 26.0555C26.72 26.3824 26.3295 26.6386 25.8996 26.8083C23.9637 27.2023 21.9836 27.3343 20.0125 27.2007C18.0384 27.3297 16.056 27.1943 14.1178 26.7983C13.6879 26.6286 13.2975 26.3724 12.9707 26.0455C12.6439 25.7187 12.3877 25.3283 12.218 24.8984C11.8165 22.9609 11.6778 20.9782 11.8055 19.0037C11.6765 17.0297 11.8119 15.0473 12.208 13.1091C12.3777 12.6792 12.6339 12.2888 12.9607 11.962C13.2875 11.6351 13.6779 11.3789 14.1078 11.2092C16.0489 10.8094 18.035 10.6732 20.0125 10.8043C21.9865 10.6753 23.9689 10.8107 25.9071 11.2067C26.337 11.3764 26.7275 11.6326 27.0543 11.9595C27.3811 12.2863 27.6373 12.6767 27.807 13.1066C28.2051 15.0445 28.3405 17.0272 28.2095 19.0013C28.3393 20.9798 28.2014 22.9668 27.7995 24.9084Z" fill="#e91e63"/>
</g>
<defs fill="#000000">
<clipPath id="clip0_9_41" fill="#000000">
<rect width="20" height="20" fill="white" transform="translate(10 9)"/>
</clipPath>
</defs>
</svg>