<svg xmlns="http://www.w3.org/2000/svg" width="40" height="40" viewBox="0 0 40 40" fill="none">
<path d="M40 20C40 8.9543 31.0457 0 20 0C8.9543 0 0 8.9543 0 20C0 31.0457 8.9543 40 20 40C31.0457 40 40 31.0457 40 20Z" fill="#ffe8de"/>
<g clip-path="url(#clip0_8_24)">
<path d="M27.9468 15.9257C27.9597 16.1035 27.9597 16.2814 27.9597 16.4593C27.9703 17.9939 27.6758 19.5152 27.0934 20.935C26.511 22.3548 25.6523 23.6447 24.5672 24.7299C23.482 25.815 22.1921 26.6737 20.7723 27.2561C19.3525 27.8385 17.8312 28.1329 16.2966 28.1224C14.0638 28.1269 11.8772 27.4861 10 26.2771C10.3288 26.3136 10.6594 26.3307 10.9901 26.3286C12.8354 26.3335 14.6284 25.7166 16.0802 24.5776C15.2249 24.5626 14.3957 24.2808 13.7083 23.7717C13.021 23.2627 12.5098 22.5516 12.246 21.7379C12.502 21.7787 12.7606 21.8002 13.0197 21.8022C13.3813 21.8006 13.7413 21.7538 14.0913 21.6629C13.1642 21.4735 12.3312 20.9692 11.7336 20.2356C11.1359 19.502 10.8104 18.5843 10.8123 17.638V17.5887C11.3805 17.9061 12.0157 18.0845 12.6661 18.1095C11.7954 17.5293 11.1791 16.6387 10.9429 15.6194C10.7067 14.6002 10.8685 13.5292 11.3952 12.6252C12.4252 13.8919 13.7099 14.9281 15.1661 15.6665C16.6222 16.4049 18.2173 16.8291 19.8478 16.9115C19.7823 16.6029 19.7486 16.2883 19.7471 15.9728C19.7488 15.1508 19.9972 14.3482 20.4603 13.6691C20.9234 12.9899 21.5797 12.4654 22.3443 12.1636C23.1089 11.8618 23.9465 11.7965 24.7486 11.9763C25.5508 12.156 26.2804 12.5725 26.8431 13.1717C27.7612 12.9948 28.6415 12.6598 29.4449 12.1816C29.1391 13.1288 28.4982 13.932 27.6425 14.4404C28.456 14.3448 29.2506 14.1281 30 13.7975C29.4404 14.6175 28.7462 15.337 27.9468 15.9257Z" fill="#03a9f4"/>
</g>
<defs fill="#000000">
<clipPath id="clip0_8_24" fill="#000000">
<rect width="20" height="18" fill="white" transform="translate(10 11)"/>
</clipPath>
</defs>
</svg>